<?xml version="1.0" encoding="utf-8"?>
<!-- Generator: Adobe Illustrator 24.1.2, SVG Export Plug-In . SVG Version: 6.00 Build 0)  -->
<svg version="1.1" id="Layer_1" focusable="false" xmlns="http://www.w3.org/2000/svg" xmlns:xlink="http://www.w3.org/1999/xlink"
	 x="0px" y="0px" viewBox="0 0 640 512" style="enable-background:new 0 0 640 512;" xml:space="preserve">
<style type="text/css">
	.st0{fill:#F28C00;}
	.st1{fill:#965200;}
</style>
<path class="st0" d="M544,224l-128-16l-48-16h-24L227.2,44h39.5c11.7,0,21.3-2.6,21.3-6c0-3.4-9.7-6-21.3-6H152v12h16v164h-48
	l-66.7-80H18.7L8,138.7V208h8v16h48v2.7l-64,8v42.7l64,8v2.7H16v16H8v69.3L18.7,384h34.7l66.7-80h48v164h-16v12h114.7
	c11.7,0,21.3-2.6,21.3-6c0-3.4-9.7-6-21.3-6h-39.5L344,320h24l48-16l128-16c96-21.3,96-26.6,96-32C640,250.6,640,245.3,544,224z
	 M32,269.5c-5.9-0.3-10.6-5.2-10.6-11.1v-2.9c0-5.9,4.6-10.8,10.5-11.1l214.7-11.8c6.4-0.3,11.7,4.7,11.7,11.1v24.7
	c0,6.3-5.3,11.4-11.6,11.1L32,269.5z M271.5,331.2l-69.3,122.6c-1.4,2.5-4,4-6.8,4c-4.3,0-7.8-3.5-7.8-7.8V327.3
	c0-4.3,3.5-7.8,7.8-7.8h69.3C270.7,319.5,274.5,326,271.5,331.2z M264.8,192.6h-69.3c-4.3,0-7.8-3.5-7.8-7.8V62.2
	c0-4.3,3.5-7.8,7.8-7.8c2.8,0,5.4,1.5,6.8,4l69.3,122.6C274.5,186.1,270.7,192.6,264.8,192.6z M332.9,269.5
	c0,5.8-4.7,10.5-10.5,10.5h-8.3c-5.8,0-10.5-4.7-10.5-10.5v-27c0-5.8,4.7-10.5,10.5-10.5h8.3c5.8,0,10.5,4.7,10.5,10.5V269.5z
	 M462.6,279.9v0.1H359.3c-6.8,0-12.3-5.5-12.3-12.3v-23.4c0-6.8,5.5-12.3,12.3-12.3h103.3v0.1c54,1.1,96.4,11.4,96.4,23.9
	C559,268.5,516.7,278.8,462.6,279.9z"/>
<g>
	<path class="st1" d="M258.4,243.7v24.7c0,6.3-5.3,11.4-11.6,11.1L32,269.5c-5.9-0.3-10.6-5.2-10.6-11.1v-2.9
		c0-5.9,4.6-10.8,10.5-11.1l214.7-11.8C253,232.3,258.4,237.4,258.4,243.7z"/>
	<path class="st1" d="M264.8,192.6h-69.3c-4.3,0-7.8-3.5-7.8-7.8V62.2c0-4.3,3.5-7.8,7.8-7.8c2.8,0,5.4,1.5,6.8,4l69.3,122.6
		C274.5,186.1,270.7,192.6,264.8,192.6z"/>
	<path class="st1" d="M332.9,242.5v27c0,5.8-4.7,10.5-10.5,10.5h-8.3c-5.8,0-10.5-4.7-10.5-10.5v-27c0-5.8,4.7-10.5,10.5-10.5h8.3
		C328.2,232,332.9,236.7,332.9,242.5z"/>
	<path class="st1" d="M559,256c0,12.5-42.3,22.8-96.4,23.9v0.1H359.3c-6.8,0-12.3-5.5-12.3-12.3v-23.4c0-6.8,5.5-12.3,12.3-12.3
		h103.3v0.1C516.7,233.2,559,243.5,559,256z"/>
	<path class="st1" d="M271.5,331.2l-69.3,122.6c-1.4,2.5-4,4-6.8,4c-4.3,0-7.8-3.5-7.8-7.8V327.3c0-4.3,3.5-7.8,7.8-7.8h69.3
		C270.7,319.5,274.5,326,271.5,331.2z"/>
</g>
</svg>
